<svg aria-hidden="true" style="position: absolute; width: 0; height: 0; overflow: hidden;" version="1.1" xmlns="http://www.w3.org/2000/svg" xmlns:xlink="http://www.w3.org/1999/xlink">
<defs>
<symbol id="icon-email-black-18dp-1" viewBox="0 0 32 32">
<path d="M26.673 5.335h-21.338c-1.467 0-2.653 1.2-2.653 2.667l-0.014 16.004c0 1.467 1.2 2.667 2.667 2.667h21.338c1.467 0 2.667-1.2 2.667-2.667v-16.004c0-1.467-1.2-2.667-2.667-2.667zM26.14 11.004l-9.428 5.893c-0.201 0.126-0.446 0.2-0.708 0.2s-0.506-0.075-0.713-0.204l0.006 0.003-9.428-5.893c-0.336-0.201-0.557-0.562-0.557-0.976 0-0.626 0.507-1.133 1.133-1.133 0.233 0 0.449 0.070 0.629 0.19l-0.004-0.003 8.935 5.587 8.935-5.589c0.176-0.118 0.392-0.188 0.625-0.188 0.626 0 1.133 0.507 1.133 1.133 0 0.413-0.221 0.775-0.552 0.973l-0.005 0.003z"></path>
</symbol>
<symbol id="icon-icon-check" viewBox="0 0 32 32">
<path fill="#2196f3" style="fill: var(--color1, #2196f3)" d="M4.002 1.003h24.013c2.21 0 4.002 1.792 4.002 4.002v22.012c0 2.21-1.792 4.002-4.002 4.002h-24.013c-2.21 0-4.002-1.792-4.002-4.002v-22.012c0-2.21 1.792-4.002 4.002-4.002z"></path>
<path fill="#fff" style="fill: var(--color2, #fff); stroke: var(--color2, #fff)" stroke="#fff" stroke-linejoin="miter" stroke-linecap="butt" stroke-miterlimit="4" stroke-width="0.4" d="M7.918 16.515l-0.138-0.132-0.138 0.13-1.929 1.829 0.152 0.146 7.134 6.804 0.138-0.132 15.168-14.47-0.152-0.144-1.903-1.815-0.138 0.132-13.113 12.499-5.081-4.847z"></path>
</symbol>
<symbol id="icon-icon-send" viewBox="0 0 32 32">
<path fill="#fff" style="fill: var(--color2, #fff)" d="M32.003 0l-32.003 18.002 10.228 3.787 15.775-14.788-11.998 16.188 0.009 0.003-0.012-0.003v8.814l5.735-6.691 7.267 2.691 4.999-28.003z"></path>
</symbol>
<symbol id="icon-person-black-18dp-1" viewBox="0 0 32 32">
<path d="M16.004 16.004c2.946 0 5.335-2.388 5.335-5.335s-2.388-5.335-5.335-5.335v0c-2.946 0-5.335 2.388-5.335 5.335s2.388 5.335 5.335 5.335v0zM16.004 18.671c-3.562 0-10.669 1.787-10.669 5.335v1.334c0 0.733 0.599 1.334 1.334 1.334h18.671c0.733 0 1.334-0.601 1.334-1.334v-1.334c0-3.548-7.109-5.335-10.669-5.335z"></path>
</symbol>
<symbol id="icon-phone-black-18dp-1" viewBox="0 0 32 32">
<path d="M24.888 19.779l-3.268-0.373c-0.090-0.011-0.194-0.018-0.3-0.018-0.707 0-1.347 0.287-1.811 0.75l-2.369 2.369c-3.67-1.894-6.587-4.811-8.429-8.374l-0.051-0.108 2.383-2.377c0.464-0.463 0.75-1.104 0.75-1.811 0-0.106-0.006-0.21-0.019-0.312l0.001 0.012-0.373-3.243c-0.155-1.288-1.241-2.276-2.557-2.276-0.001 0-0.002 0-0.003 0h-2.226c-1.455 0-2.664 1.209-2.575 2.662 0.683 10.989 9.473 19.767 20.449 20.449 1.453 0.089 2.664-1.12 2.664-2.575v-2.226c0-0.004 0-0.008 0-0.012 0-1.308-0.985-2.386-2.254-2.533l-0.012-0.001z"></path>
</symbol>
</defs>
</svg>
