<svg aria-hidden="true" style="position: absolute; width: 0; height: 0; overflow: hidden;" version="1.1" xmlns="http://www.w3.org/2000/svg" xmlns:xlink="http://www.w3.org/1999/xlink">
<defs>
<symbol id="icon-close" viewBox="0 0 32 32">
<path fill="#fff" style="fill: var(--color1, #fff)" d="M32.011 16.006c0 8.84-7.166 16.006-16.006 16.006s-16.006-7.166-16.006-16.006c0-8.84 7.166-16.006 16.006-16.006s16.006 7.166 16.006 16.006z"></path>
<path fill="none" stroke="#000" style="stroke: var(--color2, #000)" stroke-linejoin="miter" stroke-linecap="butt" stroke-miterlimit="4" stroke-width="1.0667" d="M31.478 16.006c0 8.545-6.927 15.472-15.472 15.472s-15.472-6.927-15.472-15.472c0-8.545 6.927-15.472 15.472-15.472s15.472 6.927 15.472 15.472z"></path>
<path fill="#000" style="fill: var(--color2, #000)" d="M22.408 10.786l-1.182-1.182-4.686 4.686-4.686-4.686-1.182 1.182 4.686 4.686-4.686 4.686 1.182 1.182 4.686-4.686 4.686 4.686 1.182-1.182-4.686-4.686 4.686-4.686z"></path>
</symbol>
</defs>
</svg>
